HIERARCHY
ROOT Hips
{
	OFFSET	0.00	0.00	0.00
	CHANNELS 6 Xposition Yposition Zposition Zrotation Xrotation Yrotation
	JOINT LeftUpLeg
	{
		OFFSET	 0.126116	-0.014019	-0.065224
		CHANNELS 3 Zrotation Xrotation Yrotation
		JOINT LeftLeg
		{
			OFFSET	 0.000000	 0.000000	 0.569914
			CHANNELS 3 Zrotation Xrotation Yrotation
			JOINT LeftFoot
			{
				OFFSET	 0.000000	 0.000000	 0.544423
				CHANNELS 3 Zrotation Xrotation Yrotation
				JOINT LeftToeBase
				{
					OFFSET	 0.000000	 0.000000	 0.207117
					CHANNELS 3 Zrotation Xrotation Yrotation
					End Site
					{
						OFFSET	 0.000000	 0.000000	 0.207117
					}
				}
			}
		}
	}
	JOINT RightUpLeg
	{
		OFFSET	-0.124023	-0.008373	-0.065224
		CHANNELS 3 Zrotation Xrotation Yrotation
		JOINT RightLeg
		{
			OFFSET	 0.000000	 0.000000	 0.570047
			CHANNELS 3 Zrotation Xrotation Yrotation
			JOINT RightFoot
			{
				OFFSET	 0.000000	 0.000000	 0.544354
				CHANNELS 3 Zrotation Xrotation Yrotation
				JOINT RightToeBase
				{
					OFFSET	 0.000000	 0.000000	 0.207540
					CHANNELS 3 Zrotation Xrotation Yrotation
					End Site
					{
						OFFSET	 0.000000	 0.000000	 0.207540
					}
				}
			}
		}
	}
	JOINT Spine
	{
		OFFSET	 0.000184	-0.007763	 0.117403
		CHANNELS 3 Zrotation Xrotation Yrotation
		JOINT Spine1
		{
			OFFSET	 0.000000	 0.000000	 0.137269
			CHANNELS 3 Zrotation Xrotation Yrotation
			JOINT Spine2
			{
				OFFSET	 0.000000	 0.000000	 0.156879
				CHANNELS 3 Zrotation Xrotation Yrotation
				JOINT LeftShoulder
				{
					OFFSET	 0.080501	-0.002496	 0.160144
					CHANNELS 3 Zrotation Xrotation Yrotation
					JOINT LeftArm
					{
						OFFSET	 0.000000	 0.000000	 0.164363
						CHANNELS 3 Zrotation Xrotation Yrotation
						JOINT LeftForeArm
						{
							OFFSET	 0.000000	 0.000000	 0.364576
							CHANNELS 3 Zrotation Xrotation Yrotation
							JOINT LeftHand
							{
								OFFSET	 0.000000	 0.000000	 0.360812
								CHANNELS 3 Zrotation Xrotation Yrotation
								JOINT LeftHandIndex1
								{
									OFFSET	 0.000000	 0.000000	 0.086006
									CHANNELS 3 Zrotation Xrotation Yrotation
									JOINT LeftHandIndex2
									{
										OFFSET	 0.000000	 0.000000	 0.047236
										CHANNELS 3 Zrotation Xrotation Yrotation
										JOINT LeftHandIndex3
										{
											OFFSET	-0.004284	-0.000551	 0.038166
											CHANNELS 3 Zrotation Xrotation Yrotation
											End Site
											{
												OFFSET	-0.004284	-0.000551	 0.038166
											}
										}
									}
								}
							}
						}
					}
				}
				JOINT Neck
				{
					OFFSET	 0.000000	 0.000000	 0.176489
					CHANNELS 3 Zrotation Xrotation Yrotation
					JOINT Head
					{
						OFFSET	 0.000000	-0.001747	 0.077940
						CHANNELS 3 Zrotation Xrotation Yrotation
						End Site
						{
							OFFSET	 0.000000	-0.001747	 0.077940
						}
					}
				}
				JOINT RightShoulder
				{
					OFFSET	-0.080363	 0.000306	 0.159706
					CHANNELS 3 Zrotation Xrotation Yrotation
					JOINT RightArm
					{
						OFFSET	 0.000000	 0.000000	 0.164196
						CHANNELS 3 Zrotation Xrotation Yrotation
						JOINT RightForeArm
						{
							OFFSET	 0.000000	 0.000000	 0.365611
							CHANNELS 3 Zrotation Xrotation Yrotation
							JOINT RightHand
							{
								OFFSET	 0.000000	 0.000000	 0.360648
								CHANNELS 3 Zrotation Xrotation Yrotation
								JOINT RightHandIndex1
								{
									OFFSET	 0.000000	 0.000000	 0.069977
									CHANNELS 3 Zrotation Xrotation Yrotation
									JOINT RightHandIndex2
									{
										OFFSET	 0.000000	 0.000000	 0.052305
										CHANNELS 3 Zrotation Xrotation Yrotation
										JOINT RightHandIndex3
										{
											OFFSET	 0.009002	-0.000782	 0.042196
											CHANNELS 3 Zrotation Xrotation Yrotation
											End Site
											{
												OFFSET	 0.009002	-0.000782	 0.042196
											}
										}
									}
								}
							}
						}
					}
				}
			}
		}
	}
}
MOTION
Frames:    7
Frame Time: 0.03333334
-2.333497	-12.263460	 0.456338	-24.951710	 8.019963	 1.693189	 4.523791	-22.031150	 174.188400	-1.651236	-39.976470	-0.197492	 0.071935	 84.618830	-0.544861	-2.385758	 28.469050	-0.000353	-2.483153	-22.911420	-178.753500	-0.123154	-40.882120	-0.003474	-0.195277	 85.544380	 0.434728	 2.407686	 17.339990	-0.225431	-5.541390	 9.015295	-0.015285	-8.582478	 6.934938	-2.059696	-9.986371	 4.263584	-0.290061	-115.613100	 89.398020	-153.616800	 56.130670	 60.024520	-78.276370	-3.683168	-4.409133	-20.748100	 7.236315	 3.506552	-5.341952	-3.812334	 37.924440	-2.927599	-2.450526	 36.184240	 0.754587	-1.378229	 35.397820	-2.634230	 0.458547	 2.656704	-0.641814	-2.012130	 7.155051	 0.366703	 94.722890	 86.912700	 171.581800	-53.512130	 70.322940	 71.704820	-3.194061	-12.998130	 25.798370	-25.088110	 2.462899	 9.577903	 6.437017	 35.671460	-0.771858	 2.830251	 35.756010	-7.813440	-2.350882	 35.473990	 5.254307
-2.332420	-12.262830	 0.459143	-24.981390	 8.047283	 1.798521	 4.499411	-22.387110	 174.108700	-1.738548	-40.644930	-0.285767	 0.038771	 84.838900	-0.600835	-2.385558	 28.513830	-0.001319	-2.448085	-23.254540	-178.769400	-0.086051	-41.395540	 0.053842	-0.458126	 85.732080	 0.765255	 2.407682	 17.728000	-0.217851	-5.673401	 9.147505	-0.096043	-8.576870	 6.887289	-2.105261	-9.986547	 4.183317	-0.297091	-115.552200	 89.389950	-153.647100	 55.803540	 59.207670	-77.897610	-3.804701	-4.141598	-21.343220	 6.423929	 3.512101	-5.347169	-3.812334	 37.924440	-2.927599	-2.450526	 36.184240	 0.754587	-1.378229	 35.397820	-2.634230	 0.445102	 2.518703	-0.592894	-2.007061	 7.111236	 0.283613	 94.721540	 86.893300	 171.554500	-53.334940	 69.724300	 71.848880	-3.072656	-12.887550	 26.224130	-24.698550	 2.464677	 9.579352	 6.437017	 35.671460	-0.771858	 2.830251	 35.756010	-7.813440	-2.350882	 35.473990	 5.254307
-2.330938	-12.261580	 0.456936	-25.035840	 8.036624	 1.831644	 4.522856	-22.970640	 174.057700	-1.796653	-41.424470	-0.324320	 0.241648	 85.074230	-0.833484	-2.385179	 28.599620	-0.003176	-2.422366	-23.679910	-178.730800	-0.058865	-42.056390	 0.106529	-0.737488	 85.927970	 1.099859	 2.407641	 18.019460	-0.212150	-5.880490	 9.325165	-0.117615	-8.561774	 6.829097	-2.132457	-9.994462	 4.087772	-0.305696	-114.976500	 89.363270	-154.168200	 55.295460	 58.313930	-77.516910	-4.001418	-3.848968	-22.080780	 5.650947	 3.525888	-5.353819	-3.812334	 37.924440	-2.927599	-2.450526	 36.184240	 0.754587	-1.378229	 35.397820	-2.634230	 0.424332	 2.295323	-0.569333	-2.016708	 7.116646	 0.219093	 94.742370	 86.880970	 171.499900	-52.934850	 69.003390	 71.835290	-2.910480	-12.831860	 26.919790	-24.333720	 2.468894	 9.582657	 6.437017	 35.671460	-0.771858	 2.830251	 35.756010	-7.813440	-2.350882	 35.473990	 5.254307
-2.329039	-12.259640	 0.453936	-25.128430	 8.083216	 1.849841	 4.604202	-23.651310	 174.020100	-1.878372	-42.429100	-0.348624	 0.478937	 85.363250	-1.076554	-2.384965	 28.647130	-0.004199	-2.402635	-24.325950	-178.663400	-0.057441	-42.965060	 0.146295	-1.069474	 86.164160	 1.464501	 2.407544	 18.354190	-0.205581	-6.192513	 9.571057	-0.113949	-8.548641	 6.727468	-2.151349	-10.010520	 3.944740	-0.318737	-114.141400	 89.322180	-154.918200	 54.483290	 57.560970	-77.111120	-3.924248	-3.797543	-23.066000	 5.600930	 3.547094	-5.358424	-3.812334	 37.924440	-2.927599	-2.450526	 36.184240	 0.754587	-1.378229	 35.397820	-2.634230	 0.394483	 2.004106	-0.551254	-2.041639	 7.114544	 0.235296	 94.779820	 86.862380	 171.406800	-52.285440	 68.156330	 71.736640	-2.620068	-12.799120	 27.904890	-23.961510	 2.462151	 9.571951	 6.437017	 35.671460	-0.771858	 2.830251	 35.756010	-7.813440	-2.350882	 35.473990	 5.254307
-2.326750	-12.256920	 0.450267	-25.236800	 8.171248	 1.855194	 4.721697	-24.467210	 173.998900	-1.986194	-43.602890	-0.369727	 0.726412	 85.692980	-1.320963	-2.384579	 28.730960	-0.006018	-2.375993	-25.221140	-178.586700	-0.098859	-44.072370	 0.165048	-1.445003	 86.431360	 1.843595	 2.407364	 18.813390	-0.196554	-6.594725	 9.869673	-0.102013	-8.540219	 6.581234	-2.167850	-10.007320	 3.760757	-0.334760	-113.246800	 89.276380	-155.726400	 53.525930	 56.889660	-76.824810	-4.144771	-3.722797	-24.327620	 5.541016	 3.569441	-5.363140	-3.812334	 37.924440	-2.927599	-2.450526	 36.184240	 0.754587	-1.378229	 35.397820	-2.634230	 0.377962	 1.690591	-0.547584	-2.048743	 7.065105	 0.322235	 94.823450	 86.828550	 171.278900	-51.535640	 67.284070	 71.785890	-2.167072	-12.768820	 29.052000	-23.619550	 2.470232	 9.578002	 6.437017	 35.671460	-0.771858	 2.830251	 35.756010	-7.813440	-2.350882	 35.473990	 5.254307
-2.323874	-12.253040	 0.445785	-25.369850	 8.349526	 1.793557	 4.750323	-25.574900	 174.016100	-2.140516	-45.023050	-0.477155	 0.717890	 86.089540	-1.384892	-2.383956	 28.866830	-0.008970	-2.288309	-26.428000	-178.496000	-0.125777	-45.449360	 0.236664	-1.553331	 86.751820	 1.996202	 2.406961	 19.476170	-0.183480	-7.092187	 10.243700	-0.029000	-8.523668	 6.369222	-2.167050	-9.971625	 3.506105	-0.355793	-112.513000	 89.224430	-156.345100	 52.407460	 56.242450	-76.565610	-4.890985	-3.471217	-25.988560	 5.134486	 3.592400	-5.368483	-3.812334	 37.924440	-2.927599	-2.450526	 36.184240	 0.754587	-1.378229	 35.397820	-2.634230	 0.383869	 1.274474	-0.560456	-2.026482	 6.969803	 0.442077	 94.866330	 86.769410	 171.110000	-50.656540	 66.392300	 72.041190	-1.479387	-12.714570	 30.373250	-23.284030	 2.478700	 9.583268	 6.437017	 35.671460	-0.771858	 2.830251	 35.756010	-7.813440	-2.350882	 35.473990	 5.254307
-2.319923	-12.247480	 0.439962	-25.561650	 8.649244	 1.688165	 4.810486	-27.149990	 174.102800	-2.384223	-46.904210	-0.633963	 1.148036	 86.613900	-1.923299	-2.383006	 29.070710	-0.013409	-2.216885	-28.042300	-178.441400	-0.143329	-47.308410	 0.314319	-2.230305	 87.174920	 2.717169	 2.406316	 20.220510	-0.168726	-7.717109	 10.814210	 0.082156	-8.473216	 6.046266	-2.153888	-9.893548	 3.114307	-0.386913	-112.085600	 89.163270	-156.588900	 51.011090	 55.570260	-76.271400	-5.872815	-3.137037	-28.183950	 4.735096	 3.616762	-5.373265	-3.812334	 37.924440	-2.927599	-2.450526	 36.184240	 0.754587	-1.378229	 35.397820	-2.634230	 0.426385	 0.696985	-0.614062	-1.982246	 6.768170	 0.693379	 94.900220	 86.664930	 170.878400	-49.409960	 65.428750	 72.274950	-0.472719	-12.591910	 31.992470	-22.901700	 2.473920	 9.572343	 6.437017	 35.671460	-0.771858	 2.830251	 35.756010	-7.813440	-2.350882	 35.473990	 5.254307
